<svg width="18" height="20" viewBox="0 0 18 20" fill="none" xmlns="http://www.w3.org/2000/svg">
<path d="M17.4699 5.37005C17.4699 5.37005 17.4699 5.37005 17.4699 5.29005L17.4099 5.14005C17.389 5.10822 17.3656 5.07812 17.3399 5.05005C17.3131 5.00772 17.283 4.96759 17.2499 4.93005L17.1599 4.86005L16.9999 4.78005L9.4999 0.150049C9.34097 0.0507167 9.15732 -0.00195312 8.9699 -0.00195312C8.78248 -0.00195313 8.59883 0.0507167 8.4399 0.150049L0.999901 4.78005L0.909901 4.86005L0.819901 4.93005C0.786752 4.96759 0.756656 5.00772 0.729901 5.05005C0.704193 5.07812 0.680784 5.10822 0.659901 5.14005L0.599901 5.29005C0.599901 5.29005 0.599901 5.29005 0.599901 5.37005C0.590072 5.45644 0.590072 5.54366 0.599901 5.63005V14.3701C0.599561 14.54 0.642537 14.7072 0.724772 14.8559C0.807007 15.0047 0.925788 15.13 1.0699 15.22L8.5699 19.85C8.61606 19.8786 8.66681 19.8989 8.7199 19.91C8.7199 19.91 8.7699 19.91 8.7999 19.91C8.96908 19.9637 9.15072 19.9637 9.3199 19.91C9.3199 19.91 9.3699 19.91 9.3999 19.91C9.45299 19.8989 9.50374 19.8786 9.5499 19.85L16.9999 15.22C17.144 15.13 17.2628 15.0047 17.345 14.8559C17.4273 14.7072 17.4702 14.54 17.4699 14.3701V5.63005C17.4797 5.54366 17.4797 5.45644 17.4699 5.37005ZM7.9999 17.21L2.4999 13.8101V7.43005L7.9999 10.82V17.21ZM8.9999 9.09005L3.3999 5.63005L8.9999 2.18005L14.5999 5.63005L8.9999 9.09005ZM15.4999 13.8101L9.9999 17.21V10.82L15.4999 7.43005V13.8101Z" fill="black"/>
</svg>
