<svg width="60" height="12" viewBox="0 0 60 12" fill="none" xmlns="http://www.w3.org/2000/svg">
<path d="M5.87588 1.14231C5.94321 0.960295 6.20065 0.960295 6.26797 1.14231L7.35565 4.08282C7.38494 4.16199 7.45897 4.21577 7.54331 4.21916L10.676 4.34494C10.8699 4.35272 10.9495 4.59756 10.7972 4.71784L8.33669 6.66094C8.27045 6.71326 8.24217 6.80029 8.26501 6.88155L9.11345 9.89979C9.16597 10.0866 8.9577 10.2379 8.79624 10.1303L6.18791 8.39066C6.11768 8.34382 6.02618 8.34382 5.95595 8.39066L3.34761 10.1303C3.18616 10.2379 2.97789 10.0866 3.0304 9.89979L3.87884 6.88155C3.90169 6.80029 3.87341 6.71326 3.80716 6.66094L1.34668 4.71784C1.19438 4.59756 1.27394 4.35272 1.46785 4.34494L4.60055 4.21916C4.68489 4.21577 4.75892 4.16199 4.78821 4.08282L5.87588 1.14231Z" fill="#FFB400"/>
<path d="M17.9994 1.14231C18.0667 0.960295 18.3242 0.960295 18.3915 1.14231L19.4792 4.08282C19.5085 4.16199 19.5825 4.21577 19.6668 4.21916L22.7995 4.34494C22.9935 4.35272 23.073 4.59756 22.9207 4.71784L20.4602 6.66094C20.394 6.71326 20.3657 6.80029 20.3885 6.88155L21.237 9.89979C21.2895 10.0866 21.0812 10.2379 20.9198 10.1303L18.3114 8.39066C18.2412 8.34382 18.1497 8.34382 18.0795 8.39066L15.4711 10.1303C15.3097 10.2379 15.1014 10.0866 15.1539 9.89979L16.0024 6.88155C16.0252 6.80029 15.9969 6.71326 15.9307 6.66094L13.4702 4.71784C13.3179 4.59756 13.3975 4.35272 13.5914 4.34494L16.7241 4.21916C16.8084 4.21577 16.8825 4.16199 16.9117 4.08282L17.9994 1.14231Z" fill="#FFB400"/>
<path d="M30.1234 1.14231C30.1908 0.960295 30.4482 0.960295 30.5155 1.14231L31.6032 4.08282C31.6325 4.16199 31.7065 4.21577 31.7909 4.21916L34.9236 4.34494C35.1175 4.35272 35.197 4.59756 35.0447 4.71784L32.5843 6.66094C32.518 6.71326 32.4897 6.80029 32.5126 6.88155L33.361 9.89979C33.4135 10.0866 33.2053 10.2379 33.0438 10.1303L30.4355 8.39066C30.3652 8.34382 30.2737 8.34382 30.2035 8.39066L27.5952 10.1303C27.4337 10.2379 27.2254 10.0866 27.278 9.89979L28.1264 6.88155C28.1492 6.80029 28.121 6.71326 28.0547 6.66094L25.5942 4.71784C25.4419 4.59756 25.5215 4.35272 25.7154 4.34494L28.8481 4.21916C28.9325 4.21577 29.0065 4.16199 29.0358 4.08282L30.1234 1.14231Z" fill="#FFB400"/>
<path d="M42.247 1.14231C42.3143 0.960295 42.5717 0.960295 42.6391 1.14231L43.7267 4.08282C43.756 4.16199 43.8301 4.21577 43.9144 4.21916L47.0471 4.34494C47.241 4.35272 47.3206 4.59756 47.1683 4.71784L44.7078 6.66094C44.6415 6.71326 44.6133 6.80029 44.6361 6.88155L45.4845 9.89979C45.5371 10.0866 45.3288 10.2379 45.1673 10.1303L42.559 8.39066C42.4888 8.34382 42.3973 8.34382 42.327 8.39066L39.7187 10.1303C39.5573 10.2379 39.349 10.0866 39.4015 9.89979L40.2499 6.88155C40.2728 6.80029 40.2445 6.71326 40.1783 6.66094L37.7178 4.71784C37.5655 4.59756 37.645 4.35272 37.8389 4.34494L40.9716 4.21916C41.056 4.21577 41.13 4.16199 41.1593 4.08282L42.247 1.14231Z" fill="#FFB400"/>
<path d="M54.3705 1.14231C54.4378 0.960295 54.6953 0.960295 54.7626 1.14231L55.8503 4.08282C55.8796 4.16199 55.9536 4.21577 56.0379 4.21916L59.1706 4.34494C59.3646 4.35272 59.4441 4.59756 59.2918 4.71784L56.8313 6.66094C56.7651 6.71326 56.7368 6.80029 56.7596 6.88155L57.6081 9.89979C57.6606 10.0866 57.4523 10.2379 57.2909 10.1303L54.6825 8.39066C54.6123 8.34382 54.5208 8.34382 54.4506 8.39066L51.8422 10.1303C51.6808 10.2379 51.4725 10.0866 51.525 9.89979L52.3735 6.88155C52.3963 6.80029 52.368 6.71326 52.3018 6.66094L49.8413 4.71784C49.689 4.59756 49.7686 4.35272 49.9625 4.34494L53.0952 4.21916C53.1795 4.21577 53.2536 4.16199 53.2828 4.08282L54.3705 1.14231Z" fill="#FFB400"/>
</svg>
