<svg width="20" height="14" viewBox="0 0 20 14" fill="none" xmlns="http://www.w3.org/2000/svg">
<path d="M19 12H11C10.4 12 10 12.4 10 13C10 13.6 10.4 14 11 14H19C19.6 14 20 13.6 20 13C20 12.4 19.6 12 19 12ZM19 8H11C10.4 8 10 8.4 10 9C10 9.6 10.4 10 11 10H19C19.6 10 20 9.6 20 9C20 8.4 19.6 8 19 8ZM11 2H19C19.6 2 20 1.6 20 1C20 0.4 19.6 0 19 0H11C10.4 0 10 0.4 10 1C10 1.6 10.4 2 11 2ZM19 4H11C10.4 4 10 4.4 10 5C10 5.6 10.4 6 11 6H19C19.6 6 20 5.6 20 5C20 4.4 19.6 4 19 4ZM7.00005 0C6.40005 0 6.00005 0.4 6.00005 1V13C6.00005 13.6 6.40005 14 7.00005 14C7.60005 14 8.00005 13.6 8.00005 13V1C8.00005 0.4 7.60005 0 7.00005 0ZM2.60005 7L3.70005 6.1C4.10005 5.7 4.20005 5.1 3.80005 4.7C3.40005 4.3 2.80005 4.2 2.40005 4.6L0.40005 6.3L0.30005 6.4C-0.0999501 6.8 5.00083e-05 7.5 0.40005 7.8L2.40005 9.5C2.60005 9.6 2.80005 9.7 3.00005 9.7C3.30005 9.7 3.60005 9.6 3.80005 9.3C4.20005 8.9 4.10005 8.2 3.70005 7.9L2.60005 7Z" fill="black"/>
</svg>
